<?xml version="1.0" encoding="UTF-8"?><svg xmlns="http://www.w3.org/2000/svg" viewBox="0 0 60 60"><defs><style>.e{fill:#ed006c;}.f{fill:#e8ab00;}.g{fill:#ff6631;}.h{fill:#00a698;}.i,.j{fill:#16233d;}.k{fill:#99cfff;}.j{stroke:#16233d;stroke-miterlimit:10;stroke-width:.5px;}</style></defs><g id="a"><g/><g><g><g><g><path class="g" d="M48.127,8.953h-11.218c-.844,0-1.531,.687-1.531,1.531v22.561c0,.844,.687,1.53,1.531,1.53h11.218c.844,0,1.53-.686,1.53-1.53V10.483c0-.844-.686-1.531-1.53-1.531Z"/><path class="j" d="M48.127,7.264h-11.218c-1.775,0-3.219,1.444-3.219,3.219v22.561c0,1.775,1.444,3.219,3.219,3.219h11.218c1.775,0,3.219-1.444,3.219-3.219V10.483c0-1.775-1.444-3.219-3.219-3.219Zm1.53,25.781c0,.844-.686,1.53-1.53,1.53h-11.218c-.844,0-1.531-.686-1.531-1.53V10.483c0-.844,.687-1.531,1.531-1.531h11.218c.844,0,1.53,.687,1.53,1.531v22.561Z"/></g><g><path class="f" d="M40.271,13.522h4.494c.75,0,1.36,.609,1.36,1.36v2.568c0,.75-.609,1.359-1.359,1.359h-4.494c-.75,0-1.359-.609-1.359-1.359v-2.568c0-.75,.609-1.36,1.36-1.36Z"/><path class="i" d="M44.765,14.448c.24,0,.434,.194,.434,.434v2.568c0,.239-.194,.433-.434,.433h-4.494c-.239,0-.433-.194-.433-.433v-2.568c0-.239,.194-.434,.433-.434h4.494m0-1.852h-4.494c-1.26,0-2.285,1.025-2.285,2.286v2.568c0,1.26,1.025,2.285,2.285,2.285h4.494c1.26,0,2.286-1.025,2.286-2.285v-2.568c0-1.26-1.025-2.286-2.286-2.286h0Z"/></g><g><path class="i" d="M45.498,24.757h-5.96c-.639,0-1.157-.518-1.157-1.157s.518-1.157,1.157-1.157h5.96c.639,0,1.157,.518,1.157,1.157s-.518,1.157-1.157,1.157Z"/><path class="i" d="M45.498,29.249h-5.96c-.639,0-1.157-.518-1.157-1.157s.518-1.157,1.157-1.157h5.96c.639,0,1.157,.518,1.157,1.157s-.518,1.157-1.157,1.157Z"/></g></g><rect class="i" x="34.948" y="8.509" width="14.853" height="2.649"/><rect class="i" x="34.948" y="32.276" width="14.853" height="3.226"/></g><g><g><path class="h" d="M39.782,14.443h-11.218c-.844,0-1.531,.687-1.531,1.531v22.561c0,.844,.687,1.53,1.531,1.53h11.218c.844,0,1.53-.686,1.53-1.53V15.974c0-.844-.686-1.531-1.53-1.531Z"/><path class="j" d="M39.782,12.755h-11.218c-1.775,0-3.219,1.444-3.219,3.219v22.561c0,1.775,1.444,3.219,3.219,3.219h11.218c1.775,0,3.219-1.444,3.219-3.219V15.974c0-1.775-1.444-3.219-3.219-3.219Zm1.53,25.781c0,.844-.686,1.53-1.53,1.53h-11.218c-.844,0-1.531-.686-1.531-1.53V15.974c0-.844,.687-1.531,1.531-1.531h11.218c.844,0,1.53,.687,1.53,1.531v22.561Z"/><path class="i" d="M32.111,15.976h4.123c.74,0,1.341-.601,1.341-1.34s-.601-1.34-1.341-1.34h-4.123c-.739,0-1.341,.601-1.341,1.34s.602,1.34,1.341,1.34Z"/></g><g><path class="f" d="M31.926,19.139h4.494c.75,0,1.36,.609,1.36,1.36v2.568c0,.75-.609,1.359-1.359,1.359h-4.494c-.75,0-1.359-.609-1.359-1.359v-2.568c0-.75,.609-1.359,1.359-1.359Z"/><path class="i" d="M36.42,20.065c.24,0,.434,.194,.434,.434v2.568c0,.239-.194,.433-.434,.433h-4.494c-.239,0-.433-.194-.433-.433v-2.568c0-.239,.194-.434,.433-.434h4.494m0-1.852h-4.494c-1.26,0-2.285,1.025-2.285,2.286v2.568c0,1.26,1.025,2.285,2.285,2.285h4.494c1.26,0,2.286-1.025,2.286-2.285v-2.568c0-1.26-1.025-2.286-2.286-2.286h0Z"/></g><g><path class="i" d="M37.153,31.061h-5.96c-.639,0-1.157-.518-1.157-1.157s.518-1.157,1.157-1.157h5.96c.639,0,1.157,.518,1.157,1.157s-.518,1.157-1.157,1.157Z"/><path class="i" d="M37.153,35.987h-5.96c-.639,0-1.157-.518-1.157-1.157s.518-1.157,1.157-1.157h5.96c.639,0,1.157,.518,1.157,1.157s-.518,1.157-1.157,1.157Z"/></g></g><g><g><path class="e" d="M31.436,19.934h-11.218c-.844,0-1.531,.687-1.531,1.531v22.561c0,.844,.687,1.53,1.531,1.53h11.218c.844,0,1.53-.686,1.53-1.53V21.465c0-.844-.686-1.531-1.53-1.531Z"/><path class="j" d="M31.436,18.245h-11.218c-1.775,0-3.219,1.444-3.219,3.219v22.561c0,1.775,1.444,3.219,3.219,3.219h11.218c1.775,0,3.219-1.444,3.219-3.219V21.465c0-1.775-1.444-3.219-3.219-3.219Zm1.53,25.781c0,.844-.686,1.53-1.53,1.53h-11.218c-.844,0-1.531-.686-1.531-1.53V21.465c0-.844,.687-1.531,1.531-1.531h11.218c.844,0,1.53,.687,1.53,1.531v22.561Z"/></g><g><path class="f" d="M23.58,24.503h4.494c.75,0,1.36,.609,1.36,1.36v2.568c0,.75-.609,1.359-1.359,1.359h-4.494c-.75,0-1.359-.609-1.359-1.359v-2.568c0-.75,.609-1.36,1.36-1.36Z"/><path class="i" d="M28.074,25.429c.24,0,.434,.194,.434,.434v2.568c0,.239-.194,.433-.434,.433h-4.494c-.239,0-.433-.194-.433-.433v-2.568c0-.239,.194-.434,.433-.434h4.494m0-1.852h-4.494c-1.26,0-2.285,1.025-2.285,2.286v2.568c0,1.26,1.025,2.285,2.285,2.285h4.494c1.26,0,2.286-1.025,2.286-2.285v-2.568c0-1.26-1.025-2.286-2.286-2.286h0Z"/></g><g><path class="i" d="M28.807,36.468h-5.96c-.639,0-1.157-.518-1.157-1.157s.518-1.157,1.157-1.157h5.96c.639,0,1.157,.518,1.157,1.157s-.518,1.157-1.157,1.157Z"/><path class="i" d="M28.807,41.369h-5.96c-.639,0-1.157-.518-1.157-1.157s.518-1.157,1.157-1.157h5.96c.639,0,1.157,.518,1.157,1.157s-.518,1.157-1.157,1.157Z"/></g></g><g><g><path class="k" d="M23.091,25.425H11.873c-.844,0-1.531,.687-1.531,1.531v22.561c0,.844,.687,1.53,1.531,1.53h11.218c.844,0,1.53-.686,1.53-1.53V26.955c0-.844-.686-1.531-1.53-1.531Z"/><path class="j" d="M23.091,23.736H11.873c-1.775,0-3.219,1.444-3.219,3.219v22.561c0,1.775,1.444,3.219,3.219,3.219h11.218c1.775,0,3.219-1.444,3.219-3.219V26.955c0-1.775-1.444-3.219-3.219-3.219Zm1.53,25.781c0,.844-.686,1.53-1.53,1.53H11.873c-.844,0-1.531-.686-1.531-1.53V26.955c0-.844,.687-1.531,1.531-1.531h11.218c.844,0,1.53,.687,1.53,1.531v22.561Z"/><path class="i" d="M15.42,26.958h4.123c.74,0,1.341-.601,1.341-1.34s-.601-1.34-1.341-1.34h-4.123c-.739,0-1.341,.601-1.341,1.34s.602,1.34,1.341,1.34Z"/></g><g><path class="f" d="M15.234,30.12h4.494c.75,0,1.36,.609,1.36,1.36v2.568c0,.75-.609,1.359-1.359,1.359h-4.494c-.75,0-1.359-.609-1.359-1.359v-2.568c0-.75,.609-1.359,1.359-1.359Z"/><path class="i" d="M19.728,31.046c.24,0,.434,.194,.434,.434v2.568c0,.239-.194,.433-.434,.433h-4.494c-.239,0-.433-.194-.433-.433v-2.568c0-.239,.194-.434,.433-.434h4.494m0-1.852h-4.494c-1.26,0-2.285,1.025-2.285,2.286v2.568c0,1.26,1.025,2.285,2.285,2.285h4.494c1.26,0,2.286-1.025,2.286-2.285v-2.568c0-1.26-1.025-2.286-2.286-2.286h0Z"/></g><g><path class="i" d="M20.462,42.247h-5.96c-.639,0-1.157-.518-1.157-1.157s.518-1.157,1.157-1.157h5.96c.639,0,1.157,.518,1.157,1.157s-.518,1.157-1.157,1.157Z"/><path class="i" d="M20.462,46.94h-5.96c-.639,0-1.157-.518-1.157-1.157s.518-1.157,1.157-1.157h5.96c.639,0,1.157,.518,1.157,1.157s-.518,1.157-1.157,1.157Z"/></g></g></g></g><g id="b"/><g id="c"/><g id="d"/></svg>