<?xml version="1.0" encoding="UTF-8"?><svg id="Layer_1" data-name="Layer 1" xmlns="http://www.w3.org/2000/svg" viewBox="0 0 60 60"><defs><style>.cls-1{fill:#16233d;}.cls-2{fill:none;stroke:#16233d;stroke-linecap:round;stroke-miterlimit:10;stroke-width:2px;}.cls-3{fill:#a0dcf9;}</style></defs><path class="cls-1" d="M53,27.21a7.68,7.68,0,0,0-7.64-7,7.28,7.28,0,0,0-1.22.11,9.64,9.64,0,0,0-8-4.19,9.75,9.75,0,0,0-6.54,2.53,7.63,7.63,0,0,0-10.32,7.18c0,.22,0,.44,0,.65a7.67,7.67,0,0,0,1.48,15.19H49.41A7.66,7.66,0,0,0,53,27.21ZM49.41,38.59H20.79a4.6,4.6,0,1,1,4-6.9,1.52,1.52,0,0,0,2.09.57,1.54,1.54,0,0,0,.57-2.1,7.68,7.68,0,0,0-5-3.65,3.94,3.94,0,0,1-.07-.69,4.6,4.6,0,0,1,8.93-1.55,1.53,1.53,0,0,0,2.89-1,7.59,7.59,0,0,0-1.83-2.89A6.61,6.61,0,0,1,42,22.74s0,0,0,0a1.66,1.66,0,0,0,.23.31l.06.05a1.3,1.3,0,0,0,.23.18l.09.05a1.36,1.36,0,0,0,.71.2h.1a.78.78,0,0,0,.22,0l.12,0,.07,0a4.61,4.61,0,0,1,5.81,2.83h-.25a1.53,1.53,0,1,0,0,3.06,4.85,4.85,0,0,1,1.52.26h0a4.62,4.62,0,0,1-1.53,9Z"/><line class="cls-2" x1="2.92" y1="40.67" x2="25.4" y2="40.67"/><line class="cls-2" x1="14.94" y1="21.37" x2="37.42" y2="21.37"/><path class="cls-3" d="M49.41,38.59H20.79a4.6,4.6,0,1,1,4-6.9,1.52,1.52,0,0,0,2.09.57,1.54,1.54,0,0,0,.57-2.1,7.68,7.68,0,0,0-5-3.65,3.94,3.94,0,0,1-.07-.69,4.6,4.6,0,0,1,8.93-1.55,1.53,1.53,0,0,0,2.89-1,7.59,7.59,0,0,0-1.83-2.89A6.61,6.61,0,0,1,42,22.74s0,0,0,0a1.66,1.66,0,0,0,.23.31l.06.05a1.3,1.3,0,0,0,.23.18l.09.05a1.36,1.36,0,0,0,.71.2h.1a.78.78,0,0,0,.22,0l.12,0,.07,0a4.61,4.61,0,0,1,5.81,2.83h-.25a1.53,1.53,0,1,0,0,3.06,4.85,4.85,0,0,1,1.52.26h0a4.62,4.62,0,0,1-1.53,9Z"/><line class="cls-2" x1="8.91" y1="31.02" x2="14.94" y2="31.02"/><line class="cls-2" x1="10.01" y1="25.69" x2="13.84" y2="25.69"/><line class="cls-2" x1="5.08" y1="35.85" x2="8.91" y2="35.85"/></svg>